<svg id="Layer_1" data-name="Layer 1" xmlns="http://www.w3.org/2000/svg" viewBox="0 0 190 39.86"><defs><style>.cls-1{fill:#231f20;}</style></defs><title>CSK_LOGO</title><path class="cls-1" d="M15.35,4.08a22,22,0,0,1,4.26.5A12,12,0,0,1,23.5,5.95L22.3,8.68a27.06,27.06,0,0,0-3.31-1,17.23,17.23,0,0,0-3.64-.31A10,10,0,0,0,9.57,9.12a11.89,11.89,0,0,0-4.11,4.93A16.7,16.7,0,0,0,4,21.2,17.46,17.46,0,0,0,5.28,28a11.17,11.17,0,0,0,3.78,4.89,9.73,9.73,0,0,0,5.85,1.8,18.1,18.1,0,0,0,4-.39,16.37,16.37,0,0,0,3.19-1.06l1.44,2.88a17,17,0,0,1-4,1.32,21.06,21.06,0,0,1-4.53.55,14.49,14.49,0,0,1-8.19-2.25,14,14,0,0,1-5.14-6.09A20.36,20.36,0,0,1,0,21.25,20,20,0,0,1,1.87,12.5,14.46,14.46,0,0,1,15.35,4.08" transform="translate(0 0)"/><path class="cls-1" d="M43.86,38A21,21,0,0,1,39,37.32a13.38,13.38,0,0,1-4.08-1.54l.91-3a20.91,20.91,0,0,0,3.72,1.37,16.53,16.53,0,0,0,4.3.6,9.79,9.79,0,0,0,5.78-1.46,4.47,4.47,0,0,0,2-3.81,4.75,4.75,0,0,0-1-3,8.9,8.9,0,0,0-2.76-2.31A51.85,51.85,0,0,0,43,21.87a19.1,19.1,0,0,1-6.54-4.17,7.82,7.82,0,0,1-2.1-5.53A7.25,7.25,0,0,1,35.64,8a8.54,8.54,0,0,1,3.65-2.95A13.14,13.14,0,0,1,44.77,4a17.48,17.48,0,0,1,4.49.58A19.22,19.22,0,0,1,53.12,6l-1.3,2.93a24.88,24.88,0,0,0-3.23-1.25A13,13,0,0,0,45,7.24,8.8,8.8,0,0,0,40,8.54a4.13,4.13,0,0,0-1.9,3.6,4.77,4.77,0,0,0,.93,3,9.2,9.2,0,0,0,2.67,2.23c1.15.67,2.85,1.52,5.08,2.54a32.25,32.25,0,0,1,4.87,2.68,9.47,9.47,0,0,1,2.8,3,7.72,7.72,0,0,1,1,4A7.45,7.45,0,0,1,54,33.86a9.09,9.09,0,0,1-4,3A15.85,15.85,0,0,1,43.86,38" transform="translate(0 0)"/><path class="cls-1" d="M79.7,34.11A9.41,9.41,0,0,0,87.17,31L76.59,21.35a21.49,21.49,0,0,1-1.75-1.75,7.08,7.08,0,0,0-2.53,2.91,9.84,9.84,0,0,0-1,4.22,6.51,6.51,0,0,0,2.46,5.48,9.43,9.43,0,0,0,5.91,1.89M96,34.69,93.6,36.94l-3.83-3.5q-3.65,3.93-10.07,3.92a15.94,15.94,0,0,1-6.21-1.25,9.77,9.77,0,0,1-4.35-3.57,10,10,0,0,1-1.59-5.72A11.9,11.9,0,0,1,69,21.28a11.16,11.16,0,0,1,3.66-4.09,8.34,8.34,0,0,1-1.46-4.82,8.73,8.73,0,0,1,1.06-4.25A7.92,7.92,0,0,1,75.35,5a9.51,9.51,0,0,1,4.77-1.16,13.73,13.73,0,0,1,3.92.52,22.88,22.88,0,0,1,3.64,1.46L86.37,8.73l-1.23-.57a14.63,14.63,0,0,0-2.05-.78,10.18,10.18,0,0,0-3-.36,5,5,0,0,0-5.25,5.06,6,6,0,0,0,1,3.57,28,28,0,0,0,3.73,4L89,28.39a22,22,0,0,0,2-8.22l3,1.18a22.5,22.5,0,0,1-2.31,9.45Z" transform="translate(0 0)"/><polygon class="cls-1" points="133.7 4.03 136.15 6.53 121.13 20.25 137.03 34.77 134.45 37.37 117.79 21.94 112.39 21.94 112.39 36.73 108.36 36.73 108.36 4.45 112.39 4.45 112.39 18.57 117.78 18.57 133.7 4.03"/><path class="cls-1" d="M156.73,8a5.71,5.71,0,0,0-2.56,4.46V27.36a5.71,5.71,0,0,0,2.56,4.46l12.8,7.43a5.65,5.65,0,0,0,5.12,0l12.8-7.43A5.71,5.71,0,0,0,190,27.36V12.5A5.71,5.71,0,0,0,187.44,8L174.64.61a5.65,5.65,0,0,0-5.12,0Z" transform="translate(0 0)"/></svg>