<svg id="Layer_1" data-name="Layer 1" xmlns="http://www.w3.org/2000/svg" viewBox="0 0 170 229.77"><defs><style>.cls-1{fill:#231f20;}</style></defs><title>CSK_icon_ado</title><path class="cls-1" d="M161.22,40.91c5.1-13.1,8.05-25.64,8.78-37.43A3.28,3.28,0,0,0,165.6.2c-6.19,2.26-14.5,6.58-20.38,9.8-3.18,1.75-5.92,3.31-7.75,4.38A16,16,0,0,0,125.31,8.8H51.21l-1,1h0L25.6,34.4,0,60V184.79a16.15,16.15,0,0,0,13.19,15.85A16.15,16.15,0,0,0,26.3,215.06a16.15,16.15,0,0,0,16.06,14.71H151.53a16.15,16.15,0,0,0,16.13-16.13V53.78A16.08,16.08,0,0,0,161.22,40.91Zm-13.8,14.58-13,5.91a3.28,3.28,0,0,0-.71,5.53l5,4C120.4,100.82,96.92,125.39,84,137.6c17.44-42.32,44-84.61,78.22-124.2C160,26.59,155,40.7,147.42,55.49Zm6.88-42.9c-33,38.86-58.82,80.26-76,121.73a121.48,121.48,0,0,1,1.18-23.64l6.91-3.3a3.28,3.28,0,0,0,1.35-4.72c-1.64-2.58-3.27-5.19-4.85-7.78a128.26,128.26,0,0,1,40.69-62.44l7.14,3a3.28,3.28,0,0,0,4.45-2.23c1-3.9,2-7.84,3.17-11.71C140.85,20,147.4,16.16,154.3,12.58ZM49.29,20V48.51a9.59,9.59,0,0,1-9.58,9.58H11.19ZM16.13,194.36a9.59,9.59,0,0,1-9.57-9.58V64.64H39.71A16.15,16.15,0,0,0,55.84,48.51V15.36h69.46a9.52,9.52,0,0,1,7,3.06,2.55,2.55,0,0,0-.07.54c-.88,3-1.71,6-2.5,8.95l-5.47-2.28a3.28,3.28,0,0,0-3.35.5A134.78,134.78,0,0,0,76.18,94.53a3.28,3.28,0,0,0,.36,2.55c1.2,2,2.43,4,3.68,6l-5.15,2.45a3.28,3.28,0,0,0-1.82,2.43,124.1,124.1,0,0,0-.17,39.6q-4,10.79-7.19,21.54a3.28,3.28,0,1,0,6.29,1.87q3-10,6.64-20c1.32-.93,3.27-2.69,6.64-5.78,3.69-3.38,9.57-9,16.58-16.37a353.22,353.22,0,0,0,32.84-40.1v96.1a9.59,9.59,0,0,1-9.58,9.58Zm13.11,14.43a9.58,9.58,0,0,1-9.41-7.87H125.31a16.15,16.15,0,0,0,16.13-16.13V78.86c1.46-2.29,2.91-4.62,4.33-7a3.28,3.28,0,0,0-.77-4.24l-3.07-2.47L148,62.42V199.21a9.59,9.59,0,0,1-9.58,9.58Zm131.86,4.85a9.59,9.59,0,0,1-9.58,9.58H42.36a9.58,9.58,0,0,1-9.41-7.87H138.42a16.15,16.15,0,0,0,16.13-16.13V55.91q2.15-4.33,4-8.59a9.49,9.49,0,0,1,2.55,6.46Z"/></svg>