<?xml version="1.0" encoding="utf-8"?>
<!-- Generator: Adobe Illustrator 21.0.2, SVG Export Plug-In . SVG Version: 6.00 Build 0)  -->
<svg version="1.1" id="Layer_1" xmlns="http://www.w3.org/2000/svg" xmlns:xlink="http://www.w3.org/1999/xlink" x="0px" y="0px"
	 viewBox="0 0 158.2 213.8" style="enable-background:new 0 0 158.2 213.8;" xml:space="preserve">
<style type="text/css">
	.st0{fill:#231F20;}
</style>
<title>CSK_icon_ado</title>
<path class="st0" d="M150,38.1c4.7-12.2,7.5-23.9,8.2-34.8c0.1-1.7-1.2-3.1-2.9-3.2c-0.4,0-0.8,0-1.2,0.2c-5.8,2.1-13.5,6.1-19,9.1
	c-3,1.6-5.5,3.1-7.2,4.1c-2.8-3.3-7-5.2-11.3-5.2h-69l-0.9,0.9l0,0L23.8,32L0,55.8V172c0,7.2,5.2,13.4,12.3,14.7
	c0.6,6.7,5.6,12.2,12.2,13.4c0.7,7.7,7.2,13.7,14.9,13.7H141c8.3,0,15-6.7,15-15V50C156,45.3,153.8,40.9,150,38.1z M137.2,51.6
	l-12.1,5.5c-1.5,0.7-2.2,2.5-1.5,4c0.2,0.4,0.5,0.8,0.9,1.1l4.7,3.7c-17,27.8-38.9,50.7-50.9,62c16.2-39.4,40.9-78.7,72.8-115.6
	C148.9,24.7,144.2,37.9,137.2,51.6z M143.6,11.7C112.9,47.9,88.8,86.4,72.9,125c-0.4-7.4,0-14.7,1.1-22l6.4-3.1
	c1.5-0.7,2.2-2.6,1.4-4.1c-0.1-0.1-0.1-0.2-0.2-0.3c-1.5-2.4-3-4.8-4.5-7.2c6.6-22.7,19.8-42.9,37.9-58.1l6.6,2.8
	c1.6,0.7,3.3-0.1,4-1.6c0.1-0.1,0.1-0.3,0.1-0.4c0.9-3.6,1.9-7.3,2.9-10.9C131.1,18.6,137.2,15,143.6,11.7L143.6,11.7z M45.9,18.6
	v26.5c0,4.9-4,8.9-8.9,8.9H10.4L45.9,18.6z M15,180.9c-4.9,0-8.9-4-8.9-8.9V60.1H37c8.3,0,15-6.7,15-15V14.3h64.6
	c2.5,0,4.8,1,6.5,2.8c0,0.2-0.1,0.3-0.1,0.5c-0.8,2.8-1.6,5.6-2.3,8.3l-5.1-2.1c-1-0.4-2.2-0.3-3.1,0.5C92.4,40.7,77.8,62.9,70.9,88
	c-0.2,0.8-0.1,1.7,0.3,2.4c1.1,1.9,2.3,3.7,3.4,5.6l-4.8,2.3c-0.9,0.4-1.5,1.3-1.7,2.3c-2,12.2-2.1,24.6-0.2,36.8
	c-2.5,6.7-4.7,13.4-6.7,20c-0.5,1.6,0.4,3.3,2.1,3.8c1.6,0.5,3.3-0.4,3.8-2.1c1.9-6.2,3.9-12.4,6.2-18.6c1.2-0.9,3-2.5,6.2-5.4
	c3.4-3.1,8.9-8.4,15.4-15.2c11.1-11.7,21.3-24.1,30.6-37.3V172c0,4.9-4,8.9-8.9,8.9L15,180.9z M27.2,194.3c-4.3,0-8-3.1-8.8-7.3
	h98.2c8.3,0,15-6.7,15-15V73.4c1.4-2.1,2.7-4.3,4-6.5c0.8-1.3,0.5-3-0.7-3.9l-2.9-2.3l5.6-2.5v127.3c0,4.9-4,8.9-8.9,8.9H27.2z
	 M149.9,198.8c0,4.9-4,8.9-8.9,8.9H39.4c-4.3,0-8-3.1-8.8-7.3h98.1c8.3,0,15-6.7,15-15V52c1.3-2.7,2.6-5.4,3.7-8
	c1.5,1.6,2.4,3.8,2.4,6V198.8z"/>
</svg>
