<?xml version="1.0" encoding="utf-8"?>
<!-- Generator: Adobe Illustrator 21.0.2, SVG Export Plug-In . SVG Version: 6.00 Build 0)  -->
<svg version="1.1" id="Layer_1" xmlns="http://www.w3.org/2000/svg" xmlns:xlink="http://www.w3.org/1999/xlink" x="0px" y="0px"
	 viewBox="0 0 170 196.4" style="enable-background:new 0 0 170 196.4;" xml:space="preserve">
<style type="text/css">
	.st0{fill:#231F20;}
</style>
<title>CSK_icon_konyveles</title>
<path class="st0" d="M123,0H55c-8.2,0-14.8,6.6-14.9,14.8c0,0,0,0,0,0V33C15.4,35.8-2.5,58.1,0.3,82.9c2.3,21,18.9,37.5,39.8,39.8
	v58.8c0,8.2,6.7,14.8,14.8,14.8c0,0,0,0,0,0h100.2c8.2,0,14.8-6.6,14.8-14.8V47L123,0z M124.8,10.3l17.5,17.5l17.5,17.5h-26.2
	c-4.9,0-8.8-3.9-8.8-8.8L124.8,10.3z M80,60.1H42.8c-1.7,0-3,1.3-3,3c0,1.7,1.3,3,3,3h39.7c1,3.2,1.6,6.6,1.7,10
	c-0.2,0-0.4-0.1-0.6-0.1H42.8c-1.7,0-3,1.3-3,3s1.3,3,3,3h40.8c0.1,0,0.3,0,0.4,0c-0.4,4.2-1.6,8.3-3.3,12.1H42.8c-1.7,0-3,1.3-3,3
	s1.3,3,3,3h34.5c-1.3,1.9-2.8,3.7-4.5,5.4c-11.8,11.8-29.7,14.8-44.7,7.6V42.6c15-7.2,32.9-4.2,44.7,7.6l0,0
	C75.7,53.1,78.1,56.5,80,60.1z M78.5,108.5l46.6,33.6c0.5,0.5,4.9,4.5,5.2,9.6c0.1,3-1.2,6.1-4.1,9c-2.9,2.9-5.9,4.3-9,4.1
	c-5.1-0.2-9.2-4.7-9.6-5.2L74,113L78.5,108.5z M17.5,50.2c1.4-1.5,3-2.8,4.6-4v63.3c-1.6-1.2-3.2-2.5-4.6-4
	C2.3,90.2,2.2,65.5,17.5,50.2L17.5,50.2z M155.2,190.4H55c-4.9,0-8.8-3.9-8.8-8.8V123c8-0.2,15.9-2.5,22.7-6.7l33.9,47l0.1,0.1
	c0.2,0.3,5.9,7,14,7.4h0.8c4.5,0,8.8-2,12.7-5.8h0.1l0.1-0.1l0.1-0.1c4.1-4.1,6-8.7,5.8-13.4c-0.4-8.1-7.1-13.8-7.4-14l-0.1-0.1
	l-46.7-33.6C96.4,83.3,91.5,55.2,71,40.9c-7.3-5.1-16-8-24.9-8.1V14.8c0-4.9,3.9-8.8,8.8-8.8c0,0,0.1,0,0.1,0h63.8v30.5
	c0,8.2,6.6,14.8,14.8,14.8H164v130.3C164,186.4,160,190.4,155.2,190.4L155.2,190.4z"/>
</svg>
