<svg id="Layer_1" data-name="Layer 1" xmlns="http://www.w3.org/2000/svg" viewBox="0 0 170 192.69"><defs><style>.cls-1{fill:#231f20;}</style></defs><title>CSK_icon_berszam</title><path class="cls-1" d="M9.7,87.06C4.26,90.22,0,97.63,0,103.94v37.44a3.08,3.08,0,1,0,6.16,0V103.94c0-4.11,3.1-9.51,6.63-11.56A3.08,3.08,0,0,0,9.7,87.06Z"/><path class="cls-1" d="M78.26,65.13A32.87,32.87,0,1,0,52,26.4a33.2,33.2,0,0,0-6-.55A32.85,32.85,0,1,0,78.26,65.13ZM65.35,14A26.7,26.7,0,1,1,78.88,59c0-.08,0-.17,0-.25A32.9,32.9,0,0,0,58,28.1,26.44,26.44,0,0,1,65.35,14ZM27.14,77.59a26.7,26.7,0,1,1,37.76,0A26.53,26.53,0,0,1,27.14,77.59Z"/><path class="cls-1" d="M154.51,102.45a52.55,52.55,0,0,0-24.26-13.81V78.51c0-6.31-4.26-13.73-9.7-16.89a3.08,3.08,0,1,0-3.09,5.33C121,69,124.1,74.4,124.1,78.51v9a53,53,0,0,0-34.62,7.32,20,20,0,0,0-7.12-7.72,3.08,3.08,0,0,0-3.09,5.33,14.32,14.32,0,0,1,5.12,5.94,53.11,53.11,0,0,0-4.65,4.12,52.88,52.88,0,1,0,74.78,0Zm-4.35,70.43a46.72,46.72,0,1,1,13.69-33A46.78,46.78,0,0,1,150.16,172.88Z"/><path class="cls-1" d="M130.3,160.35H107.61a30.36,30.36,0,0,1,3.88-6.15q2.31-2.85,5-5.53t5.45-5.32q2.8-2.64,5.36-5.53a26.94,26.94,0,0,0,4.25-6.52,20.6,20.6,0,0,0,1.69-8.75,16.74,16.74,0,0,0-1.11-6.15,14.43,14.43,0,0,0-3.26-5,15.49,15.49,0,0,0-5.2-3.38,18.56,18.56,0,0,0-7-1.24,30.47,30.47,0,0,0-7.3.83,21.86,21.86,0,0,0-6.56,2.89,5.51,5.51,0,0,0-1.61,1.4,2.87,2.87,0,0,0-.54,1.73,2.75,2.75,0,0,0,1,2.23,3.28,3.28,0,0,0,2.15.83,3.78,3.78,0,0,0,2.27-.83,13,13,0,0,1,2.68-1.49,17.9,17.9,0,0,1,3.55-1.16,20.34,20.34,0,0,1,4.29-.41q5.12,0,7.67,3.05a11.43,11.43,0,0,1,2.56,7.59,12.35,12.35,0,0,1-1.36,5.82,23.62,23.62,0,0,1-3.18,4.66q-2.64,3.05-5.78,6T110.25,146a71.31,71.31,0,0,0-5.69,6.52,32.58,32.58,0,0,0-4.29,7.39,4.29,4.29,0,0,0-.41,1.53c-.06.58-.08,1.14-.08,1.69a3.43,3.43,0,0,0,.95,2.48,3.22,3.22,0,0,0,2.43,1H130.3a3.13,3.13,0,0,0,2.31-.91,3.19,3.19,0,0,0,0-4.46A3.13,3.13,0,0,0,130.3,160.35Z"/></svg>