<svg id="Layer_1" data-name="Layer 1" xmlns="http://www.w3.org/2000/svg" viewBox="0 0 170 176.39"><defs><style>.cls-1{fill:#231f20;}</style></defs><title>CSK_icon_konyveles</title><path class="cls-1" d="M123,0H55A14.83,14.83,0,0,0,40.14,14.81V23a45.15,45.15,0,0,0,0,89.74v48.84A14.83,14.83,0,0,0,55,176.39H155.19A14.83,14.83,0,0,0,170,161.58V47Zm1.76,10.28,17.49,17.49,17.49,17.49H133.54a8.8,8.8,0,0,1-8.79-8.79ZM80,50.12H42.79a3,3,0,0,0,0,6H82.48a39.12,39.12,0,0,1,1.74,10,3,3,0,0,0-.6-.06H42.79a3,3,0,1,0,0,6H83.62a3,3,0,0,0,.41,0,38.8,38.8,0,0,1-3.3,12.08H42.79a3,3,0,0,0,0,6H77.29a39.56,39.56,0,0,1-4.49,5.38,39.18,39.18,0,0,1-44.69,7.58V32.62A39.18,39.18,0,0,1,72.8,40.19h0A39.21,39.21,0,0,1,80,50.12ZM78.5,98.54l46.64,33.62c.53.46,4.94,4.48,5.19,9.59.15,3-1.24,6.07-4.14,9s-5.92,4.26-9,4.14c-5.14-.23-9.16-4.67-9.62-5.19L74,103Zm-61-58.34a39.65,39.65,0,0,1,4.63-4V99.49a39.65,39.65,0,0,1-4.63-4A39.17,39.17,0,0,1,17.46,40.19ZM155.19,170.37H55a8.8,8.8,0,0,1-8.79-8.79V113a44.8,44.8,0,0,0,22.73-6.73l33.91,47,.12.15c.24.29,5.86,7,14,7.44l.77,0c4.49,0,8.75-2,12.67-5.81l.05,0,.1-.1.05-.05c4.08-4.14,6-8.66,5.79-13.44-.4-8.13-7.15-13.76-7.44-14l-.15-.11L82.13,93.73a45.13,45.13,0,0,0-36-71V14.81A8.8,8.8,0,0,1,55,6h63.77V36.46a14.83,14.83,0,0,0,14.81,14.81H164V161.58A8.8,8.8,0,0,1,155.19,170.37Z"/></svg>