<?xml version="1.0" encoding="utf-8"?>
<!-- Generator: Adobe Illustrator 21.0.2, SVG Export Plug-In . SVG Version: 6.00 Build 0)  -->
<svg version="1.1" id="Layer_1" xmlns="http://www.w3.org/2000/svg" xmlns:xlink="http://www.w3.org/1999/xlink" x="0px" y="0px"
	 viewBox="0 0 125.3 248" style="enable-background:new 0 0 125.3 248;" xml:space="preserve">
<g>
	<path d="M4,132.1h27.2V244c0,2.2,1.8,4,4,4h46.1c2.2,0,4-1.8,4-4V132.6h31.3c2,0,3.7-1.5,4-3.5l4.7-41.2c0.1-1.1-0.2-2.3-1-3.1
		c-0.8-0.8-1.8-1.3-3-1.3h-36V57.6c0-7.8,4.2-11.7,12.5-11.7h23.5c2.2,0,4-1.8,4-4V4c0-2.2-1.8-4-4-4H88.8c-0.2,0-0.7,0-1.5,0
		c-5.6,0-25.2,1.1-40.6,15.3C29.6,31.1,32,49.9,32.5,53.2v30.2H4c-2.2,0-4,1.8-4,4v40.7C0,130.3,1.8,132.1,4,132.1L4,132.1z
		 M4,132.1"/>
</g>
</svg>
