<?xml version="1.0" encoding="utf-8"?>
<!-- Generator: Adobe Illustrator 21.0.2, SVG Export Plug-In . SVG Version: 6.00 Build 0)  -->
<svg version="1.1" id="iconmonstr" xmlns="http://www.w3.org/2000/svg" xmlns:xlink="http://www.w3.org/1999/xlink" x="0px" y="0px"
	 viewBox="0 0 24 24" style="enable-background:new 0 0 24 24;" xml:space="preserve">
<path id="linkedin-3" d="M19,0H5C2.239,0,0,2.239,0,5v14c0,2.761,2.239,5,5,5h14c2.762,0,5-2.239,5-5V5C24,2.239,21.762,0,19,0z
	 M8,19H5V8h3V19z M6.5,6.732c-0.966,0-1.75-0.79-1.75-1.764c0-0.974,0.784-1.764,1.75-1.764s1.75,0.79,1.75,1.764
	C8.25,5.942,7.467,6.732,6.5,6.732z M20,19h-3c0,0,0-4.068,0-5.604c0-3.369-4-3.114-4,0C13,15.039,13,19,13,19h-3V8h3v1.765
	c1.396-2.586,7-2.777,7,2.476C20,15.098,20,19,20,19z"/>
</svg>
